<svg width="42" height="43" viewBox="0 0 42 43" fill="none" xmlns="http://www.w3.org/2000/svg">
<circle cx="21" cy="21.5" r="21" fill="url(#paint0_linear_79_428)"/>
<path d="M30.8999 20.4H22.1V11.5999C22.1 10.9929 21.6072 10.5 20.9999 10.5C20.3928 10.5 19.9 10.9929 19.9 11.5999V20.4H11.0999C10.4929 20.4 10 20.8928 10 21.4999C10 22.1072 10.4929 22.6 11.0999 22.6H19.9V31.3999C19.9 32.0071 20.3928 32.5 20.9999 32.5C21.6072 32.5 22.1 32.0071 22.1 31.3999V22.6H30.8999C31.5071 22.6 32 22.1072 32 21.4999C32 20.8928 31.5071 20.4 30.8999 20.4Z" fill="white"/>
<defs>
<linearGradient id="paint0_linear_79_428" x1="3.12924e-07" y1="21.5" x2="42" y2="21.5" gradientUnits="userSpaceOnUse">
<stop stop-color="#00C4CC"/>
<stop offset="1" stop-color="#8B3DFF"/>
</linearGradient>
</defs>
</svg>
