<svg width="204" height="41" viewBox="0 0 204 41" fill="none" xmlns="http://www.w3.org/2000/svg">
<rect width="204" height="41" fill="#313131"/>
<g clip-path="url(#clip0_0_1)">
<rect width="1512" height="3725" transform="translate(-1188 -1726)" fill="#000001"/>
<g opacity="0.05" clip-path="url(#clip1_0_1)">
<mask id="mask0_0_1" style="mask-type:luminance" maskUnits="userSpaceOnUse" x="-1299" y="-755" width="1977" height="1978">
<path d="M-295.515 -754.119L677.572 249.14L-325.572 1222.12L-1298.66 218.857L-295.515 -754.119Z" fill="white"/>
</mask>
<g mask="url(#mask0_0_1)">
<path d="M578.041 169.599C586.334 178.241 584.9 189.773 574.842 194.947C468.308 249.853 363.768 274.018 260.539 278.188C250.801 278.571 239.011 270.926 234.197 261.351C198.178 190.022 162.159 118.674 126.14 47.3351C121.35 37.7551 123.277 29.8772 130.478 29.5964C207.401 26.4911 285.301 8.48377 364.694 -32.4263C372.127 -36.2555 384.903 -32.581 393.225 -23.9295C454.835 40.5784 516.43 105.091 578.041 169.599ZM633.966 245.725C635.827 247.694 635.358 250.366 632.936 251.625C623.724 256.419 614.53 261.008 605.359 265.397C602.927 266.544 599.51 265.82 597.743 263.816C586.694 251.284 575.654 238.751 564.609 226.234C562.851 224.248 563.285 221.724 565.589 220.617C574.34 216.448 583.101 212.073 591.874 207.498C594.19 206.293 597.583 206.9 599.42 208.855C610.929 221.148 622.443 233.436 633.966 245.725ZM547.035 285.581C548.697 287.64 548.114 290.093 545.711 291.015C536.586 294.504 527.483 297.793 518.388 300.906C515.989 301.73 512.732 300.673 511.14 298.584C501.233 285.601 491.311 272.623 481.389 259.655C479.82 257.58 480.378 255.264 482.663 254.494C491.331 251.532 500.023 248.379 508.716 245.046C511.005 244.178 514.227 245.128 515.885 247.163C526.268 259.966 536.647 272.773 547.035 285.581ZM460.848 313.55C462.336 315.675 461.654 317.904 459.264 318.514C450.211 320.825 441.165 322.951 432.131 324.905C429.788 325.422 426.699 324.08 425.28 321.954C416.48 308.667 407.69 295.38 398.895 282.098C397.499 279.997 398.196 277.865 400.42 277.37C409.04 275.507 417.657 273.469 426.29 271.274C428.542 270.705 431.586 271.95 433.065 274.045C442.324 287.215 451.589 300.38 460.848 313.55ZM375.387 330.787C376.698 332.943 375.839 334.978 373.523 335.299C364.537 336.55 355.553 337.629 346.595 338.562C344.229 338.81 341.34 337.227 340.089 335.061C332.405 321.612 324.717 308.157 317.038 294.703C315.819 292.571 316.597 290.624 318.85 290.392C327.401 289.497 335.958 288.466 344.521 287.278C346.733 286.973 349.649 288.473 350.951 290.599C359.097 303.995 367.242 317.391 375.387 330.787ZM290.558 338.444C291.673 340.611 290.713 342.472 288.353 342.554C279.445 342.847 270.533 343.003 261.64 343.036C259.293 343.04 256.525 341.265 255.464 339.092C248.887 325.592 242.296 312.079 235.71 298.58C234.677 296.426 235.628 294.658 237.858 294.656C246.34 294.626 254.832 294.474 263.329 294.186C265.571 294.105 268.308 295.817 269.434 297.955C276.485 311.455 283.511 324.949 290.558 338.444ZM214.307 261.488C218.985 271.045 214.883 278.817 205.19 278.565C102.408 275.907 0.78431 255.195 -100.353 227.176C-109.896 224.534 -118.675 214.984 -119.93 205.984C-129.597 138.758 -139.265 71.5516 -148.932 4.32547C-150.2 -4.68837 -145.503 -10.3711 -138.451 -8.4134C-63.0829 12.4593 12.636 27.902 89.2261 29.8796C96.414 30.063 106.012 37.8618 110.7 47.4282C145.237 118.777 179.779 190.13 214.307 261.488ZM206.267 337.709C207.231 339.883 206.112 341.55 203.777 341.402C194.916 340.888 186.06 340.248 177.213 339.504C174.894 339.312 172.255 337.365 171.389 335.2C165.901 321.743 160.412 308.287 154.914 294.841C154.047 292.705 155.153 291.097 157.359 291.285C165.782 291.999 174.229 292.604 182.675 293.098C184.903 293.237 187.487 295.107 188.437 297.237C194.379 310.733 200.326 324.214 206.267 337.709ZM122.426 329.732C123.21 331.873 121.971 333.385 119.662 333.061C110.839 331.843 102.025 330.533 93.2098 329.13C90.9077 328.762 88.4638 326.7 87.7436 324.563C83.3398 311.238 78.945 297.932 74.5509 284.607C73.8584 282.508 75.0713 281.041 77.2568 281.39C85.659 282.734 94.0643 284 102.479 285.153C104.686 285.453 107.103 287.447 107.873 289.564C112.724 302.963 117.575 316.342 122.426 329.732ZM39.0013 315.679C39.6195 317.802 38.2255 319.154 35.9469 318.688C27.1521 316.899 18.375 315.036 9.59633 313.091C7.28524 312.581 4.99593 310.445 4.47008 308.335C1.14751 295.228 -2.15556 282.122 -5.47311 269.011C-6.00049 266.94 -4.66094 265.603 -2.47156 266.1C5.89524 267.956 14.2652 269.735 22.6574 271.445C24.8101 271.883 27.1303 273.98 27.7105 276.075C31.4795 289.265 35.2476 302.474 39.0013 315.679ZM-44.0936 296.723C-43.6546 298.805 -45.1804 300.031 -47.4879 299.433C-56.2355 297.204 -64.9754 294.901 -73.7137 292.56C-76.0153 291.938 -78.1946 289.742 -78.5464 287.679C-80.7796 274.831 -83.0136 262.002 -85.2523 249.168C-85.59 247.12 -84.1097 245.928 -81.9093 246.517C-73.5728 248.76 -65.2441 250.955 -56.9028 253.08C-54.7166 253.655 -52.5645 255.802 -52.1342 257.854C-49.4507 270.811 -46.772 283.762 -44.0936 296.723ZM-165.931 -34.0989C-165.676 -32.0548 -166.749 -30.7694 -168.319 -31.2376C-174.285 -32.991 -180.255 -34.7689 -186.224 -36.5761C-187.788 -37.0589 -189.236 -39.0814 -189.414 -41.0969C-190.561 -53.6189 -191.717 -66.1408 -192.868 -78.6677C-193.056 -80.6831 -192.008 -81.934 -190.549 -81.499C-184.981 -79.81 -179.427 -78.1551 -173.862 -76.5197C-172.403 -76.0847 -170.998 -74.0959 -170.737 -72.0666C-169.142 -59.4073 -167.536 -46.7482 -165.931 -34.0989ZM-126.955 274.029C-126.685 276.058 -128.362 277.179 -130.647 276.503C-139.381 273.941 -148.099 271.336 -156.816 268.701C-159.114 268 -161.127 265.783 -161.329 263.773C-162.485 251.251 -163.637 238.724 -164.793 226.202C-164.976 224.211 -163.334 223.125 -161.151 223.778C-152.83 226.29 -144.513 228.767 -136.19 231.22C-133.997 231.863 -132.017 234.047 -131.751 236.051C-130.151 248.716 -128.545 261.375 -126.955 274.029ZM-209.667 248.75C-209.576 250.737 -211.353 251.775 -213.65 251.036C-222.367 248.279 -231.092 245.483 -239.811 242.682C-242.074 241.937 -243.945 239.733 -243.969 237.775C-244.039 225.589 -244.118 213.403 -244.184 201.222C-244.209 199.293 -242.432 198.264 -240.275 198.961C-231.961 201.639 -223.651 204.293 -215.33 206.937C-213.154 207.633 -211.311 209.808 -211.238 211.766C-210.719 224.089 -210.186 236.417 -209.667 248.75ZM-292.259 222.067C-292.347 224.002 -294.288 224.964 -296.555 224.224C-305.268 221.37 -313.991 218.525 -322.703 215.67C-325 214.921 -326.711 212.759 -326.552 210.867C-325.546 199.028 -324.545 187.193 -323.544 175.358C-323.385 173.476 -321.503 172.505 -319.317 173.211C-311.005 175.928 -302.697 178.65 -294.375 181.367C-292.228 182.074 -290.517 184.235 -290.608 186.136C-291.16 198.118 -291.702 210.09 -292.259 222.067ZM-374.837 195.155C-375.104 197.028 -377.199 197.953 -379.486 197.213C-388.186 194.402 -396.901 191.616 -405.613 188.854C-407.905 188.119 -409.512 186.025 -409.173 184.175C-407.101 172.691 -405.019 161.198 -402.942 149.718C-402.605 147.888 -400.568 146.955 -398.366 147.637C-390.06 150.276 -381.765 152.944 -373.456 155.617C-371.275 156.319 -369.698 158.423 -369.953 160.267C-371.581 171.893 -373.204 183.524 -374.837 195.155ZM-457.482 169.162C-457.907 170.983 -460.149 171.889 -462.438 171.198C-471.164 168.554 -479.881 165.948 -488.611 163.392C-490.896 162.716 -492.374 160.703 -491.862 158.91C-488.708 147.748 -485.549 136.59 -482.406 125.438C-481.899 123.66 -479.686 122.725 -477.512 123.368C-469.198 125.811 -460.876 128.294 -452.551 130.81C-450.363 131.468 -448.934 133.49 -449.374 135.297C-452.068 146.577 -454.772 157.867 -457.482 169.162ZM-489.983 90.1006C-492.374 97.9879 -502.02 102.161 -511.568 99.5246C-612.7 71.5004 -714.314 50.788 -817.096 48.1298C-826.803 47.8736 -829.999 41.9216 -824.229 34.6068C-781.488 -19.8538 -738.751 -74.329 -696.01 -128.79C-690.245 -136.1 -679.722 -142.025 -672.558 -141.837C-595.964 -139.854 -520.244 -124.421 -444.877 -103.549C-437.829 -101.596 -434.018 -93.5544 -436.384 -85.6819C-454.25 -27.0845 -472.122 31.5178 -489.983 90.1006ZM-540.289 145.251C-540.903 147.02 -543.238 147.961 -545.54 147.339C-554.292 144.983 -563.047 142.686 -571.804 140.447C-574.078 139.863 -575.394 137.957 -574.722 136.216C-570.481 125.351 -566.244 114.481 -562.017 103.63C-561.337 101.909 -558.985 100.933 -556.832 101.484C-548.482 103.619 -540.128 105.808 -531.787 108.056C-529.602 108.65 -528.335 110.567 -528.933 112.302C-532.72 123.29 -536.507 134.278 -540.289 145.251ZM-623.281 124.6C-624.059 126.322 -626.563 127.304 -628.855 126.804C-637.638 124.863 -646.415 122.991 -655.205 121.206C-657.513 120.731 -658.678 118.969 -657.812 117.256C-652.491 106.639 -647.174 96.0265 -641.867 85.4144C-641.017 83.7259 -638.565 82.6907 -636.354 83.1378C-627.977 84.8432 -619.602 86.6267 -611.225 88.4737C-609.059 88.9555 -607.906 90.766 -608.673 92.4685C-613.544 103.174 -618.415 113.889 -623.281 124.6ZM-706.55 108.367C-707.522 110.061 -710.171 111.128 -712.497 110.755C-721.298 109.357 -730.112 108.037 -738.92 106.824C-741.238 106.5 -742.302 104.874 -741.261 103.198C-734.862 92.7756 -728.463 82.3432 -722.059 71.9059C-721.039 70.2499 -718.392 69.12 -716.186 69.4304C-707.771 70.5835 -699.375 71.8295 -690.987 73.1782C-688.777 73.5229 -687.765 75.2078 -688.692 76.8678C-694.65 87.3691 -700.602 97.8752 -706.55 108.367ZM-790.2 97.7251C-791.328 99.392 -794.148 100.587 -796.476 100.385C-805.318 99.6369 -814.164 98.9961 -823.03 98.4775C-825.376 98.3492 -826.289 96.888 -825.073 95.2202C-817.583 84.8944 -810.093 74.5685 -802.588 64.2376C-801.408 62.6044 -798.6 61.3459 -796.376 61.4706C-787.935 61.9689 -779.494 62.5795 -771.061 63.2928C-768.834 63.4712 -767.953 65.0011 -769.07 66.6483C-776.112 77.0089 -783.149 87.3645 -790.2 97.7251ZM-676.233 -157.128C-677.541 -155.474 -679.893 -154.122 -681.502 -154.111C-687.588 -154.095 -693.683 -153.986 -699.787 -153.785C-701.383 -153.72 -701.55 -155.033 -700.173 -156.687C-691.578 -167.004 -682.979 -177.327 -674.39 -187.639C-673.012 -189.303 -670.669 -190.684 -669.2 -190.738C-663.508 -190.926 -657.828 -191.035 -652.148 -191.052C-650.667 -191.052 -650.51 -189.72 -651.829 -188.056C-659.953 -177.753 -668.093 -167.445 -676.233 -157.128ZM-874.304 93.8333C-875.618 95.4922 -878.556 96.8399 -880.908 96.8484C-889.805 96.8772 -898.717 97.0332 -907.646 97.3456C-909.956 97.4171 -910.75 96.1403 -909.363 94.4758C-900.769 84.1586 -892.179 73.8463 -883.58 63.5242C-882.228 61.8844 -879.257 60.4583 -877.054 60.378C-868.548 60.0991 -860.056 59.9472 -851.559 59.9126C-849.334 59.9054 -848.608 61.2757 -849.885 62.9C-858.03 73.2128 -866.165 83.5255 -874.304 93.8333ZM-1186.75 131.734C-1196.82 136.923 -1197.35 134.74 -1187.95 126.485C-1118.15 65.1797 -1048.35 3.88377 -978.54 -57.427C-969.131 -65.6617 -955.444 -75.7066 -948.016 -79.5307C-868.624 -120.451 -790.733 -138.448 -713.796 -141.558C-706.599 -141.844 -705.554 -135.993 -711.461 -128.687C-755.679 -74.2115 -799.892 -19.7414 -844.114 34.7387C-850.021 42.0549 -862.706 48.114 -872.445 48.5077C-975.678 52.6726 -1080.22 76.8371 -1186.75 131.734ZM-958.904 97.859C-960.389 99.5343 -963.516 101.074 -965.853 101.322C-974.811 102.255 -983.785 103.335 -992.771 104.585C-995.13 104.902 -995.766 103.819 -994.198 102.138C-984.499 91.7169 -974.796 81.3009 -965.098 70.8801C-963.55 69.2286 -960.468 67.6011 -958.222 67.2811C-949.659 66.1029 -941.097 65.0663 -932.551 64.1764C-930.332 63.9495 -929.715 65.1352 -931.185 66.7761C-940.421 77.1338 -949.662 87.4965 -958.904 97.859ZM-1044.09 110.971C-1045.74 112.667 -1049.06 114.453 -1051.43 114.97C-1060.45 116.929 -1069.48 119.059 -1078.52 121.361C-1080.9 121.975 -1081.43 121.077 -1079.69 119.365C-1068.88 108.728 -1058.06 98.0861 -1047.25 87.4394C-1045.53 85.757 -1042.26 83.8737 -1039.99 83.2896C-1031.37 81.09 -1022.76 79.0663 -1014.15 77.199C-1011.89 76.7078 -1011.4 77.6995 -1013.05 79.3763C-1023.39 89.911 -1033.74 100.436 -1044.09 110.971ZM-1129.94 134.326C-1131.79 136.078 -1135.25 138.149 -1137.65 138.964C-1146.75 142.077 -1155.85 145.366 -1164.97 148.86C-1167.38 149.772 -1167.76 149.102 -1165.84 147.325C-1153.91 136.32 -1141.97 125.311 -1130.04 114.311C-1128.15 112.563 -1124.71 110.385 -1122.41 109.508C-1113.71 106.179 -1105.04 103.041 -1096.36 100.084C-1094.09 99.2999 -1093.73 100.097 -1095.54 101.815C-1107.01 112.654 -1118.48 123.497 -1129.94 134.326ZM-1216.58 169.114C-1218.61 170.936 -1222.19 173.321 -1224.62 174.478C-1233.81 178.862 -1243.01 183.451 -1252.23 188.264C-1254.62 189.509 -1254.88 189.047 -1252.77 187.185C-1239.71 175.662 -1226.64 164.138 -1213.57 152.605C-1211.49 150.782 -1207.89 148.27 -1205.61 147.076C-1196.83 142.496 -1188.05 138.116 -1179.29 133.942C-1176.99 132.84 -1176.79 133.458 -1178.78 135.246C-1191.39 146.535 -1203.98 157.825 -1216.58 169.114ZM-895.449 -127.963C-893.34 -129.83 -890.399 -131.979 -888.871 -132.775C-882.994 -135.837 -877.127 -138.766 -871.276 -141.559C-869.746 -142.282 -870.128 -141.414 -872.157 -139.597C-884.74 -128.312 -897.343 -117.018 -909.941 -105.729C-911.975 -103.906 -914.938 -101.811 -916.598 -101.018C-922.888 -98.0159 -929.178 -94.8818 -935.48 -91.5962C-937.123 -90.7351 -936.749 -91.53 -934.65 -93.3871C-921.583 -104.916 -908.516 -116.444 -895.449 -127.963ZM-839.485 -153.623C-837.571 -155.396 -834.786 -157.299 -833.247 -157.89C-827.433 -160.121 -821.634 -162.215 -815.83 -164.201C-814.299 -164.719 -814.544 -163.73 -816.384 -161.993C-827.854 -151.149 -839.319 -140.32 -850.789 -129.476C-852.638 -127.739 -855.476 -125.86 -857.111 -125.306C-863.327 -123.184 -869.562 -120.93 -875.798 -118.544C-877.432 -117.907 -877.218 -118.837 -875.295 -120.6C-863.358 -131.614 -851.427 -142.614 -839.485 -153.623ZM-784.036 -171.62C-782.286 -173.337 -779.646 -175.033 -778.14 -175.415C-772.371 -176.888 -766.611 -178.248 -760.867 -179.492C-759.353 -179.814 -759.456 -178.719 -761.118 -177.023C-771.461 -166.493 -781.819 -155.958 -792.162 -145.428C-793.844 -143.732 -796.516 -142.069 -798.139 -141.716C-804.308 -140.381 -810.486 -138.923 -816.67 -137.348C-818.3 -136.932 -818.199 -137.988 -816.463 -139.7C-805.646 -150.341 -794.844 -160.978 -784.036 -171.62ZM-729.003 -182.716C-727.44 -184.382 -724.983 -185.911 -723.474 -186.116C-717.747 -186.91 -712.019 -187.611 -706.306 -188.195C-704.833 -188.356 -704.795 -187.125 -706.275 -185.465C-715.516 -175.102 -724.758 -164.739 -733.999 -154.377C-735.494 -152.711 -738.002 -151.226 -739.603 -151.054C-745.729 -150.417 -751.869 -149.673 -758.013 -148.831C-759.64 -148.605 -759.651 -149.787 -758.098 -151.463C-748.395 -161.879 -738.697 -172.29 -729.003 -182.716ZM-620.131 -187.166C-618.93 -188.829 -616.747 -190.1 -615.255 -190.008C-609.613 -189.677 -603.969 -189.274 -598.323 -188.797C-596.848 -188.66 -596.544 -187.217 -597.677 -185.555C-604.719 -175.194 -611.76 -164.834 -618.802 -154.473C-619.935 -152.811 -622.16 -151.563 -623.754 -151.689C-629.799 -152.211 -635.857 -152.645 -641.909 -153.001C-643.499 -153.092 -643.832 -154.515 -642.616 -156.183C-635.126 -166.509 -627.631 -176.83 -620.131 -187.166ZM-566.178 -182.03C-565.147 -183.716 -563.11 -184.893 -561.632 -184.693C-556.013 -183.918 -550.411 -183.079 -544.792 -182.182C-543.315 -181.952 -542.894 -180.388 -543.842 -178.699C-549.789 -168.207 -555.747 -157.706 -561.689 -147.21C-562.657 -145.51 -564.713 -144.352 -566.311 -144.605C-572.319 -145.567 -578.354 -146.465 -584.381 -147.294C-585.981 -147.508 -586.422 -149.062 -585.396 -150.733C-578.992 -161.17 -572.588 -171.598 -566.178 -182.03ZM-512.462 -172.985C-511.611 -174.693 -509.737 -175.825 -508.263 -175.527C-502.663 -174.385 -497.065 -173.195 -491.475 -171.95C-490.022 -171.623 -489.443 -169.977 -490.236 -168.25C-495.102 -157.54 -499.963 -146.835 -504.829 -136.124C-505.607 -134.402 -507.539 -133.289 -509.094 -133.63C-515.097 -134.963 -521.106 -136.243 -527.118 -137.463C-528.709 -137.78 -529.273 -139.43 -528.412 -141.138C-523.095 -151.75 -517.788 -162.363 -512.462 -172.985ZM-458.97 -160.782C-458.294 -162.527 -456.538 -163.629 -455.107 -163.252C-449.523 -161.822 -443.937 -160.358 -438.356 -158.869C-436.891 -158.469 -436.189 -156.737 -436.818 -154.962C-440.595 -143.984 -444.386 -133.001 -448.163 -122.023C-448.777 -120.254 -450.528 -119.157 -452.109 -119.586C-458.09 -121.203 -464.073 -122.77 -470.073 -124.294C-471.626 -124.694 -472.352 -126.44 -471.665 -128.195C-467.434 -139.061 -463.202 -149.916 -458.97 -160.782ZM-405.639 -146.169C-405.127 -147.962 -403.533 -149.057 -402.06 -148.627C-396.5 -146.987 -390.936 -145.332 -385.382 -143.648C-383.914 -143.213 -383.069 -141.375 -383.509 -139.568C-386.218 -128.273 -388.912 -116.993 -391.622 -105.698C-392.057 -103.887 -393.7 -102.782 -395.269 -103.259C-401.228 -105.067 -407.198 -106.854 -413.174 -108.598C-414.749 -109.051 -415.608 -110.904 -415.096 -112.697C-411.947 -123.854 -408.788 -135.012 -405.639 -146.169ZM-352.415 -129.905C-352.076 -131.745 -350.609 -132.868 -349.152 -132.394C-343.596 -130.636 -338.042 -128.859 -332.493 -127.067C-331.031 -126.598 -330.056 -124.708 -330.308 -122.839C-331.935 -111.213 -333.568 -99.5822 -335.192 -87.9512C-335.453 -86.073 -336.95 -84.9691 -338.523 -85.4714C-344.477 -87.3861 -350.437 -89.296 -356.393 -91.1912C-357.961 -91.6886 -358.979 -93.5933 -358.635 -95.4479C-356.569 -106.927 -354.487 -118.421 -352.415 -129.905ZM-299.222 -112.726C-299.057 -114.633 -297.774 -115.774 -296.303 -115.295C-290.745 -113.484 -285.187 -111.663 -279.624 -109.847C-278.192 -109.377 -277.063 -107.43 -277.15 -105.514C-277.707 -93.5274 -278.26 -81.5456 -278.807 -69.5686C-278.899 -67.6384 -280.251 -66.4773 -281.805 -66.9895C-287.758 -68.9434 -293.731 -70.8872 -299.688 -72.846C-301.251 -73.3581 -302.384 -75.3202 -302.219 -77.2268C-301.224 -89.0567 -300.223 -100.892 -299.222 -112.726ZM-178.911 -20.1095C-171.87 -18.0002 -165.222 -9.03926 -164.083 -0.0681095C-155.876 66.7426 -147.648 133.543 -139.43 200.334C-138.297 209.31 -145.123 214.335 -154.657 211.479C-255.634 181.182 -356.277 145.509 -457.269 115.217C-466.788 112.355 -472.718 103.666 -470.478 95.7554C-454.066 36.7376 -437.649 -22.2754 -421.232 -81.2884C-418.997 -89.2035 -411.463 -93.9567 -404.416 -91.8427C-329.151 -69.2741 -254.166 -42.6879 -178.911 -20.1095ZM-246.064 -95.4014C-246.087 -97.3696 -244.901 -98.5486 -243.448 -98.0891C-237.894 -96.2925 -232.34 -94.5154 -226.77 -92.7531C-225.318 -92.2839 -224.077 -90.3228 -223.986 -88.3358C-223.468 -76.0029 -222.939 -63.68 -222.41 -51.3571C-222.339 -49.3699 -223.532 -48.1468 -225.09 -48.6541C-231.055 -50.5492 -237.02 -52.4541 -242.984 -54.3786C-244.533 -54.8762 -245.826 -56.8808 -245.834 -58.8442C-245.909 -71.0348 -245.989 -83.2205 -246.064 -95.4014ZM-139.583 -63.2879C-139.95 -65.3454 -139.031 -66.6781 -137.575 -66.287C-131.995 -64.7886 -126.428 -63.3145 -120.85 -61.8894C-119.378 -61.5327 -117.836 -59.5452 -117.397 -57.4639C-114.728 -44.5026 -112.044 -31.5561 -109.356 -18.6048C-108.927 -16.5136 -109.867 -15.1417 -111.439 -15.5414C-117.424 -17.0798 -123.402 -18.6426 -129.379 -20.2543C-130.961 -20.6735 -132.535 -22.7143 -132.887 -24.777C-135.116 -37.6107 -137.349 -50.4493 -139.583 -63.2879ZM-86.1408 -49.9854C-86.6765 -52.095 -85.9249 -53.5189 -84.4568 -53.1963C-78.8611 -51.957 -73.2634 -50.7664 -67.6586 -49.6297C-66.209 -49.3363 -64.5134 -47.3845 -63.9152 -45.2511C-60.1463 -32.0613 -56.3875 -18.8615 -52.6241 -5.65706C-52.0157 -3.53345 -52.8134 -2.05539 -54.3746 -2.37222C-60.3815 -3.59776 -66.386 -4.88193 -72.3839 -6.21017C-73.9732 -6.556 -75.6566 -8.56646 -76.1973 -10.6712C-79.5148 -23.7824 -82.828 -36.879 -86.1408 -49.9854ZM-32.5392 -39.5419C-33.245 -41.6743 -32.6115 -43.1995 -31.1543 -42.9696C-25.5351 -42.0724 -19.9184 -41.2289 -14.294 -40.4587C-12.8161 -40.2583 -10.9961 -38.3615 -10.2227 -36.2102C-5.36667 -22.826 -0.525122 -9.44642 4.33559 3.94268C5.1239 6.08895 4.47358 7.66812 2.89829 7.4589C-3.14396 6.62445 -9.16894 5.7263 -15.206 4.76483C-16.7602 4.51633 -18.6314 2.55656 -19.3415 0.409503C-23.7457 -12.9059 -28.135 -26.2264 -32.5392 -39.5419ZM21.2999 -32.6809C20.4197 -34.8507 20.9304 -36.4822 22.4064 -36.355C28.043 -35.8878 33.6868 -35.4744 39.3337 -35.1391C40.8112 -35.0511 42.8061 -33.2488 43.7599 -31.0846C49.7014 -17.5889 55.6485 -4.10791 61.5854 9.38298C62.5486 11.5568 62.0253 13.2569 60.4257 13.1651C54.3641 12.8095 48.3156 12.3756 42.2607 11.8539C40.6725 11.7229 38.6564 9.83785 37.7711 7.673C32.2826 -5.7832 26.794 -19.2394 21.2999 -32.6809ZM75.4278 -30.1845C74.3668 -32.3574 74.7305 -34.0998 76.2217 -34.1096C81.8926 -34.1262 87.5667 -34.221 93.2595 -34.4186C94.7425 -34.4674 96.8885 -32.7741 98.0128 -30.5969C105.059 -17.1023 112.1 -3.60275 119.142 9.88704C120.281 12.0592 119.9 13.8848 118.275 13.9398C112.19 14.1413 106.1 14.2548 100.009 14.2756C98.415 14.2815 96.248 12.5054 95.1823 10.3276C88.5961 -3.18126 82.0094 -16.6804 75.4278 -30.1845ZM129.898 -32.781C128.671 -34.9522 128.888 -36.8055 130.375 -36.952C136.089 -37.5552 141.816 -38.2465 147.543 -39.0403C149.027 -39.2405 151.306 -37.6852 152.622 -35.5344C160.767 -22.1385 168.922 -8.73288 177.067 4.66304C178.378 6.81879 178.133 8.76519 176.531 8.98605C170.376 9.83781 164.256 10.5818 158.125 11.2135C156.51 11.3905 154.195 9.74774 152.963 7.5814C145.28 -5.87765 137.586 -19.3171 129.898 -32.781ZM184.736 -41.2179C183.312 -43.3579 183.416 -45.3273 184.911 -45.6595C190.68 -46.908 196.44 -48.2687 202.213 -49.737C203.715 -50.123 206.142 -48.7401 207.635 -46.6203C216.894 -33.4405 226.158 -20.2754 235.417 -7.10536C236.905 -4.98063 236.817 -2.91368 235.182 -2.50198C228.989 -0.917187 222.805 0.535616 216.631 1.87598C215.023 2.2337 212.536 0.768419 211.131 -1.37177C202.332 -14.6587 193.536 -27.9408 184.736 -41.2179ZM240.002 -56.2578C238.4 -58.3472 238.373 -60.4423 239.899 -60.9555C245.703 -62.9419 251.507 -65.0503 257.32 -67.2615C258.855 -67.8578 261.442 -66.6865 263.104 -64.627C273.502 -51.8198 283.89 -39.0125 294.264 -26.2002C295.93 -24.1359 295.954 -21.9332 294.306 -21.3114C288.075 -18.9301 281.839 -16.666 275.629 -14.5389C273.969 -13.9804 271.36 -15.2345 269.758 -17.3239C259.836 -30.3018 249.919 -43.2749 240.002 -56.2578ZM295.746 -78.6435C293.97 -80.6678 293.805 -82.8641 295.345 -83.5972C301.201 -86.3851 307.058 -89.3147 312.93 -92.3812C314.463 -93.1826 317.212 -92.2718 319.073 -90.2826C330.587 -78.0042 342.105 -65.7013 353.619 -53.413C355.465 -51.4384 355.641 -49.12 353.973 -48.244C347.676 -44.9633 341.386 -41.8292 335.12 -38.8322C333.461 -38.049 330.671 -39.0522 328.881 -41.0714C317.846 -53.5988 306.801 -66.1163 295.746 -78.6435ZM-892.687 -135.834C-1028.01 -17.6217 -1163.35 100.606 -1298.68 218.818C-613.706 -173.416 -7.41023 641.291 677.561 249.047C557.894 126.932 438.237 4.81705 318.56 -117.298C-101.249 123.104 -472.863 -376.241 -892.687 -135.834Z" fill="url(#paint0_linear_0_1)"/>
</g>
</g>
<mask id="mask1_0_1" style="mask-type:alpha" maskUnits="userSpaceOnUse" x="4" y="0" width="203" height="38">
<path d="M205.768 20.7678C206.744 19.7915 206.744 18.2085 205.768 17.2322L189.858 1.32233C188.882 0.34602 187.299 0.34602 186.322 1.32233C185.346 2.29864 185.346 3.88155 186.322 4.85786L200.464 19L186.322 33.1421C185.346 34.1184 185.346 35.7014 186.322 36.6777C187.299 37.654 188.882 37.654 189.858 36.6777L205.768 20.7678ZM4 21.5H204V16.5H4V21.5Z" fill="white"/>
</mask>
<g mask="url(#mask1_0_1)">
<rect x="-252" y="-4" width="257" height="45" fill="url(#paint1_linear_0_1)"/>
</g>
</g>
<defs>
<linearGradient id="paint0_linear_0_1" x1="-295.502" y1="-754.187" x2="677.561" y2="249.047" gradientUnits="userSpaceOnUse">
<stop stop-color="#FF0000"/>
<stop offset="0.489" stop-color="#42FF00"/>
<stop offset="1" stop-color="#2400FF"/>
</linearGradient>
<linearGradient id="paint1_linear_0_1" x1="-252" y1="-4" x2="5" y2="-4" gradientUnits="userSpaceOnUse">
<stop stop-color="#FF0000"/>
<stop offset="0.489" stop-color="#42FF00"/>
<stop offset="1" stop-color="#2400FF"/>
</linearGradient>
<clipPath id="clip0_0_1">
<rect width="1512" height="3725" fill="white" transform="translate(-1188 -1726)"/>
</clipPath>
<clipPath id="clip1_0_1">
<rect width="1397.65" height="1469.61" fill="white" transform="translate(-244.087 -804) rotate(45.8746)"/>
</clipPath>
</defs>
</svg>
