<svg width="133" height="19" viewBox="0 0 133 19" fill="none" xmlns="http://www.w3.org/2000/svg">
<path d="M0 16.62H16V0.62H0V16.62ZM22.6604 4.3H28.0204C28.2977 4.3 28.527 4.39067 28.7084 4.572C28.9004 4.74267 28.9964 4.96667 28.9964 5.244C28.9964 5.51067 28.9004 5.72933 28.7084 5.9C28.527 6.06 28.2977 6.14 28.0204 6.14H23.5404L23.6844 5.868V8.988L23.5564 8.86H27.3004C27.5777 8.86 27.807 8.95067 27.9884 9.132C28.1804 9.30267 28.2764 9.52667 28.2764 9.804C28.2764 10.0707 28.1804 10.2893 27.9884 10.46C27.807 10.62 27.5777 10.7 27.3004 10.7H23.6044L23.6844 10.572V13.804L23.5564 13.66H28.0204C28.2977 13.66 28.527 13.756 28.7084 13.948C28.9004 14.1293 28.9964 14.3427 28.9964 14.588C28.9964 14.8547 28.9004 15.0733 28.7084 15.244C28.527 15.4147 28.2977 15.5 28.0204 15.5H22.6604C22.383 15.5 22.1484 15.4093 21.9564 15.228C21.775 15.036 21.6844 14.8013 21.6844 14.524V5.276C21.6844 4.99867 21.775 4.76933 21.9564 4.588C22.1484 4.396 22.383 4.3 22.6604 4.3ZM30.8566 6.94C31.166 6.94 31.4273 7.07333 31.6406 7.34L36.9846 13.98C37.1233 14.1507 37.1926 14.3427 37.1926 14.556C37.1926 14.8227 37.0913 15.052 36.8886 15.244C36.686 15.436 36.462 15.532 36.2166 15.532C35.9073 15.532 35.646 15.3933 35.4326 15.116L30.0886 8.476C29.95 8.30533 29.8806 8.11333 29.8806 7.9C29.8806 7.62267 29.9766 7.39333 30.1686 7.212C30.3713 7.03067 30.6006 6.94 30.8566 6.94ZM30.8726 15.516C30.6593 15.516 30.446 15.436 30.2326 15.276C30.03 15.1053 29.9286 14.9027 29.9286 14.668C29.9286 14.4547 30.0086 14.252 30.1686 14.06L32.6166 11.068L33.5766 12.668L31.6406 15.116C31.438 15.3827 31.182 15.516 30.8726 15.516ZM36.2006 6.94C36.4566 6.94 36.67 7.03067 36.8406 7.212C37.022 7.38267 37.1126 7.58 37.1126 7.804C37.1126 7.91067 37.0966 8.01733 37.0646 8.124C37.0326 8.23067 36.974 8.332 36.8886 8.428L34.4726 11.372L33.4646 9.98L35.4326 7.372C35.646 7.084 35.902 6.94 36.2006 6.94ZM42.9095 6.78C43.6562 6.78 44.3228 6.972 44.9095 7.356C45.5068 7.72933 45.9762 8.24667 46.3175 8.908C46.6695 9.56933 46.8455 10.3373 46.8455 11.212C46.8455 12.0867 46.6695 12.86 46.3175 13.532C45.9762 14.1933 45.5122 14.716 44.9255 15.1C44.3495 15.4733 43.6988 15.66 42.9735 15.66C42.5468 15.66 42.1468 15.5907 41.7735 15.452C41.4002 15.3133 41.0695 15.1373 40.7815 14.924C40.5042 14.7107 40.2855 14.4973 40.1255 14.284C39.9762 14.06 39.9015 13.8733 39.9015 13.724L40.3975 13.516V17.724C40.3975 18.0013 40.3068 18.2307 40.1255 18.412C39.9442 18.604 39.7148 18.7 39.4375 18.7C39.1602 18.7 38.9308 18.6093 38.7495 18.428C38.5682 18.2467 38.4775 18.012 38.4775 17.724V7.916C38.4775 7.63867 38.5682 7.40933 38.7495 7.228C38.9308 7.036 39.1602 6.94 39.4375 6.94C39.7148 6.94 39.9442 7.036 40.1255 7.228C40.3068 7.40933 40.3975 7.63867 40.3975 7.916V8.7L40.1255 8.556C40.1255 8.41733 40.2002 8.252 40.3495 8.06C40.4988 7.85733 40.7015 7.66 40.9575 7.468C41.2135 7.26533 41.5068 7.1 41.8375 6.972C42.1788 6.844 42.5362 6.78 42.9095 6.78ZM42.6695 8.54C42.2002 8.54 41.7895 8.65733 41.4375 8.892C41.0855 9.12667 40.8082 9.44667 40.6055 9.852C40.4135 10.2467 40.3175 10.7 40.3175 11.212C40.3175 11.7133 40.4135 12.172 40.6055 12.588C40.8082 12.9933 41.0855 13.3133 41.4375 13.548C41.7895 13.7827 42.2002 13.9 42.6695 13.9C43.1388 13.9 43.5442 13.7827 43.8855 13.548C44.2375 13.3133 44.5095 12.9933 44.7015 12.588C44.9042 12.172 45.0055 11.7133 45.0055 11.212C45.0055 10.7 44.9042 10.2467 44.7015 9.852C44.5095 9.44667 44.2375 9.12667 43.8855 8.892C43.5442 8.65733 43.1388 8.54 42.6695 8.54ZM50.6044 14.524C50.6044 14.8013 50.5084 15.036 50.3164 15.228C50.135 15.4093 49.9057 15.5 49.6284 15.5C49.3617 15.5 49.1377 15.4093 48.9564 15.228C48.775 15.036 48.6844 14.8013 48.6844 14.524V4.636C48.6844 4.35867 48.775 4.12933 48.9564 3.948C49.1484 3.756 49.383 3.66 49.6604 3.66C49.9377 3.66 50.1617 3.756 50.3324 3.948C50.5137 4.12933 50.6044 4.35867 50.6044 4.636V14.524ZM60.9846 11.228C60.9846 12.1027 60.7873 12.876 60.3926 13.548C60.0086 14.2093 59.486 14.7267 58.8246 15.1C58.174 15.4733 57.4433 15.66 56.6326 15.66C55.822 15.66 55.086 15.4733 54.4246 15.1C53.774 14.7267 53.2513 14.2093 52.8566 13.548C52.4726 12.876 52.2806 12.1027 52.2806 11.228C52.2806 10.3533 52.4726 9.58533 52.8566 8.924C53.2513 8.252 53.774 7.72933 54.4246 7.356C55.086 6.972 55.822 6.78 56.6326 6.78C57.4433 6.78 58.174 6.972 58.8246 7.356C59.486 7.72933 60.0086 8.252 60.3926 8.924C60.7873 9.58533 60.9846 10.3533 60.9846 11.228ZM59.0646 11.228C59.0646 10.684 58.9526 10.2147 58.7286 9.82C58.5153 9.41467 58.222 9.1 57.8486 8.876C57.486 8.652 57.0806 8.54 56.6326 8.54C56.1846 8.54 55.774 8.652 55.4006 8.876C55.038 9.1 54.7446 9.41467 54.5206 9.82C54.3073 10.2147 54.2006 10.684 54.2006 11.228C54.2006 11.7613 54.3073 12.2307 54.5206 12.636C54.7446 13.0307 55.038 13.34 55.4006 13.564C55.774 13.788 56.1846 13.9 56.6326 13.9C57.0806 13.9 57.486 13.788 57.8486 13.564C58.222 13.34 58.5153 13.0307 58.7286 12.636C58.9526 12.2307 59.0646 11.7613 59.0646 11.228ZM63.625 15.5C63.3477 15.5 63.1183 15.4093 62.937 15.228C62.7557 15.036 62.665 14.8013 62.665 14.524V7.916C62.665 7.63867 62.7557 7.40933 62.937 7.228C63.1183 7.036 63.3477 6.94 63.625 6.94C63.9023 6.94 64.1317 7.036 64.313 7.228C64.4943 7.40933 64.585 7.63867 64.585 7.916V9.42L64.473 8.348C64.5903 8.092 64.7397 7.868 64.921 7.676C65.113 7.47333 65.3263 7.308 65.561 7.18C65.7957 7.04133 66.0463 6.94 66.313 6.876C66.5797 6.812 66.8463 6.78 67.113 6.78C67.433 6.78 67.6997 6.87067 67.913 7.052C68.137 7.23333 68.249 7.44667 68.249 7.692C68.249 8.044 68.1583 8.3 67.977 8.46C67.7957 8.60933 67.5983 8.684 67.385 8.684C67.1823 8.684 66.9957 8.64667 66.825 8.572C66.665 8.49733 66.4783 8.46 66.265 8.46C66.073 8.46 65.8757 8.508 65.673 8.604C65.481 8.68933 65.2997 8.828 65.129 9.02C64.969 9.212 64.8357 9.452 64.729 9.74C64.633 10.0173 64.585 10.348 64.585 10.732V14.524C64.585 14.8013 64.4943 15.036 64.313 15.228C64.1317 15.4093 63.9023 15.5 63.625 15.5ZM73.2751 15.66C72.3685 15.66 71.5791 15.4733 70.9071 15.1C70.2458 14.716 69.7338 14.1987 69.3711 13.548C69.0191 12.8973 68.8431 12.1613 68.8431 11.34C68.8431 10.38 69.0351 9.564 69.4191 8.892C69.8138 8.20933 70.3258 7.68667 70.9551 7.324C71.5845 6.96133 72.2511 6.78 72.9551 6.78C73.4991 6.78 74.0111 6.892 74.4911 7.116C74.9818 7.34 75.4138 7.64933 75.7871 8.044C76.1605 8.428 76.4538 8.876 76.6671 9.388C76.8911 9.9 77.0031 10.444 77.0031 11.02C76.9925 11.276 76.8911 11.484 76.6991 11.644C76.5071 11.804 76.2831 11.884 76.0271 11.884H69.9151L69.4351 10.284H75.3071L74.9551 10.604V10.172C74.9338 9.86267 74.8218 9.58533 74.6191 9.34C74.4271 9.09467 74.1818 8.90267 73.8831 8.764C73.5951 8.61467 73.2858 8.54 72.9551 8.54C72.6351 8.54 72.3365 8.58267 72.0591 8.668C71.7818 8.75333 71.5418 8.89733 71.3391 9.1C71.1365 9.30267 70.9765 9.57467 70.8591 9.916C70.7418 10.2573 70.6831 10.6893 70.6831 11.212C70.6831 11.788 70.8005 12.2787 71.0351 12.684C71.2805 13.0787 71.5898 13.3827 71.9631 13.596C72.3471 13.7987 72.7525 13.9 73.1791 13.9C73.5738 13.9 73.8885 13.868 74.1231 13.804C74.3578 13.74 74.5445 13.6653 74.6831 13.58C74.8325 13.484 74.9658 13.404 75.0831 13.34C75.2751 13.244 75.4565 13.196 75.6271 13.196C75.8618 13.196 76.0538 13.276 76.2031 13.436C76.3631 13.596 76.4431 13.7827 76.4431 13.996C76.4431 14.284 76.2938 14.5453 75.9951 14.78C75.7178 15.0147 75.3285 15.2227 74.8271 15.404C74.3258 15.5747 73.8085 15.66 73.2751 15.66ZM85.245 14.524C85.245 14.8013 85.149 15.036 84.957 15.228C84.7757 15.4093 84.5463 15.5 84.269 15.5C84.0023 15.5 83.7783 15.4093 83.597 15.228C83.4157 15.036 83.325 14.8013 83.325 14.524V4.636C83.325 4.35867 83.4157 4.12933 83.597 3.948C83.789 3.756 84.0237 3.66 84.301 3.66C84.5783 3.66 84.8023 3.756 84.973 3.948C85.1543 4.12933 85.245 4.35867 85.245 4.636V14.524ZM89.2855 14.524C89.2855 14.8013 89.1948 15.036 89.0135 15.228C88.8322 15.4093 88.6028 15.5 88.3255 15.5C88.0482 15.5 87.8188 15.4093 87.6375 15.228C87.4562 15.036 87.3655 14.8013 87.3655 14.524V7.916C87.3655 7.63867 87.4562 7.40933 87.6375 7.228C87.8188 7.036 88.0482 6.94 88.3255 6.94C88.6028 6.94 88.8322 7.036 89.0135 7.228C89.1948 7.40933 89.2855 7.63867 89.2855 7.916V14.524ZM88.3095 5.9C87.9468 5.9 87.6908 5.84133 87.5415 5.724C87.3922 5.60667 87.3175 5.39867 87.3175 5.1V4.796C87.3175 4.48667 87.3975 4.27867 87.5575 4.172C87.7282 4.05467 87.9842 3.996 88.3255 3.996C88.6988 3.996 88.9602 4.05467 89.1095 4.172C89.2588 4.28933 89.3335 4.49733 89.3335 4.796V5.1C89.3335 5.40933 89.2535 5.62267 89.0935 5.74C88.9335 5.84667 88.6722 5.9 88.3095 5.9ZM95.6908 6.78C96.4374 6.78 97.1041 6.972 97.6908 7.356C98.2881 7.72933 98.7574 8.24667 99.0988 8.908C99.4508 9.56933 99.6267 10.3373 99.6267 11.212C99.6267 12.0867 99.4508 12.86 99.0988 13.532C98.7574 14.1933 98.2934 14.716 97.7068 15.1C97.1308 15.4733 96.4801 15.66 95.7548 15.66C95.3281 15.66 94.9281 15.5907 94.5548 15.452C94.1814 15.3133 93.8508 15.1373 93.5628 14.924C93.2854 14.7107 93.0668 14.4973 92.9068 14.284C92.7574 14.06 92.6828 13.8733 92.6828 13.724L93.1788 13.516V14.684C93.1788 14.9613 93.0881 15.196 92.9068 15.388C92.7254 15.5693 92.4961 15.66 92.2188 15.66C91.9414 15.66 91.7121 15.5693 91.5308 15.388C91.3494 15.2067 91.2588 14.972 91.2588 14.684V4.636C91.2588 4.35867 91.3494 4.12933 91.5308 3.948C91.7121 3.756 91.9414 3.66 92.2188 3.66C92.4961 3.66 92.7254 3.756 92.9068 3.948C93.0881 4.12933 93.1788 4.35867 93.1788 4.636V8.7L92.9068 8.556C92.9068 8.41733 92.9814 8.252 93.1308 8.06C93.2801 7.85733 93.4828 7.66 93.7388 7.468C93.9948 7.26533 94.2881 7.1 94.6188 6.972C94.9601 6.844 95.3174 6.78 95.6908 6.78ZM95.4508 8.54C94.9814 8.54 94.5708 8.65733 94.2188 8.892C93.8668 9.12667 93.5894 9.44667 93.3868 9.852C93.1948 10.2467 93.0988 10.7 93.0988 11.212C93.0988 11.7133 93.1948 12.172 93.3868 12.588C93.5894 12.9933 93.8668 13.3133 94.2188 13.548C94.5708 13.7827 94.9814 13.9 95.4508 13.9C95.9201 13.9 96.3254 13.7827 96.6668 13.548C97.0188 13.3133 97.2908 12.9933 97.4828 12.588C97.6854 12.172 97.7868 11.7133 97.7868 11.212C97.7868 10.7 97.6854 10.2467 97.4828 9.852C97.2908 9.44667 97.0188 9.12667 96.6668 8.892C96.3254 8.65733 95.9201 8.54 95.4508 8.54ZM102.266 15.5C101.988 15.5 101.759 15.4093 101.578 15.228C101.396 15.036 101.306 14.8013 101.306 14.524V7.916C101.306 7.63867 101.396 7.40933 101.578 7.228C101.759 7.036 101.988 6.94 102.266 6.94C102.543 6.94 102.772 7.036 102.954 7.228C103.135 7.40933 103.226 7.63867 103.226 7.916V9.42L103.114 8.348C103.231 8.092 103.38 7.868 103.562 7.676C103.754 7.47333 103.967 7.308 104.202 7.18C104.436 7.04133 104.687 6.94 104.954 6.876C105.22 6.812 105.487 6.78 105.754 6.78C106.074 6.78 106.34 6.87067 106.554 7.052C106.778 7.23333 106.89 7.44667 106.89 7.692C106.89 8.044 106.799 8.3 106.618 8.46C106.436 8.60933 106.239 8.684 106.026 8.684C105.823 8.684 105.636 8.64667 105.466 8.572C105.306 8.49733 105.119 8.46 104.906 8.46C104.714 8.46 104.516 8.508 104.314 8.604C104.122 8.68933 103.94 8.828 103.77 9.02C103.61 9.212 103.476 9.452 103.37 9.74C103.274 10.0173 103.226 10.348 103.226 10.732V14.524C103.226 14.8013 103.135 15.036 102.954 15.228C102.772 15.4093 102.543 15.5 102.266 15.5ZM115.064 6.78C115.341 6.78 115.57 6.87067 115.752 7.052C115.933 7.23333 116.024 7.468 116.024 7.756V14.524C116.024 14.8013 115.933 15.036 115.752 15.228C115.57 15.4093 115.341 15.5 115.064 15.5C114.786 15.5 114.557 15.4093 114.376 15.228C114.194 15.036 114.104 14.8013 114.104 14.524V13.74L114.456 13.884C114.456 14.0227 114.381 14.1933 114.232 14.396C114.082 14.588 113.88 14.78 113.624 14.972C113.368 15.164 113.064 15.3293 112.712 15.468C112.37 15.596 111.997 15.66 111.592 15.66C110.856 15.66 110.189 15.4733 109.592 15.1C108.994 14.716 108.52 14.1933 108.168 13.532C107.826 12.86 107.656 12.092 107.656 11.228C107.656 10.3533 107.826 9.58533 108.168 8.924C108.52 8.252 108.989 7.72933 109.576 7.356C110.162 6.972 110.813 6.78 111.528 6.78C111.986 6.78 112.408 6.84933 112.792 6.988C113.176 7.12667 113.506 7.30267 113.784 7.516C114.072 7.72933 114.29 7.948 114.44 8.172C114.6 8.38533 114.68 8.56667 114.68 8.716L114.104 8.924V7.756C114.104 7.47867 114.194 7.24933 114.376 7.068C114.557 6.876 114.786 6.78 115.064 6.78ZM111.832 13.9C112.301 13.9 112.712 13.7827 113.064 13.548C113.416 13.3133 113.688 12.9933 113.88 12.588C114.082 12.1827 114.184 11.7293 114.184 11.228C114.184 10.716 114.082 10.2573 113.88 9.852C113.688 9.44667 113.416 9.12667 113.064 8.892C112.712 8.65733 112.301 8.54 111.832 8.54C111.373 8.54 110.968 8.65733 110.616 8.892C110.264 9.12667 109.986 9.44667 109.784 9.852C109.592 10.2573 109.496 10.716 109.496 11.228C109.496 11.7293 109.592 12.1827 109.784 12.588C109.986 12.9933 110.264 13.3133 110.616 13.548C110.968 13.7827 111.373 13.9 111.832 13.9ZM119.062 15.5C118.785 15.5 118.556 15.4093 118.375 15.228C118.193 15.036 118.103 14.8013 118.103 14.524V7.916C118.103 7.63867 118.193 7.40933 118.375 7.228C118.556 7.036 118.785 6.94 119.062 6.94C119.34 6.94 119.569 7.036 119.751 7.228C119.932 7.40933 120.023 7.63867 120.023 7.916V9.42L119.911 8.348C120.028 8.092 120.177 7.868 120.359 7.676C120.551 7.47333 120.764 7.308 120.999 7.18C121.233 7.04133 121.484 6.94 121.751 6.876C122.017 6.812 122.284 6.78 122.551 6.78C122.871 6.78 123.137 6.87067 123.351 7.052C123.575 7.23333 123.687 7.44667 123.687 7.692C123.687 8.044 123.596 8.3 123.415 8.46C123.233 8.60933 123.036 8.684 122.823 8.684C122.62 8.684 122.433 8.64667 122.263 8.572C122.103 8.49733 121.916 8.46 121.703 8.46C121.511 8.46 121.313 8.508 121.111 8.604C120.919 8.68933 120.737 8.828 120.567 9.02C120.407 9.212 120.273 9.452 120.167 9.74C120.071 10.0173 120.023 10.348 120.023 10.732V14.524C120.023 14.8013 119.932 15.036 119.751 15.228C119.569 15.4093 119.34 15.5 119.062 15.5ZM131.392 6.94C131.669 6.94 131.899 7.036 132.08 7.228C132.261 7.40933 132.352 7.63867 132.352 7.916V14.716C132.352 15.6973 132.165 16.476 131.792 17.052C131.429 17.6387 130.939 18.06 130.32 18.316C129.701 18.572 129.008 18.7 128.24 18.7C127.899 18.7 127.536 18.6733 127.152 18.62C126.768 18.5667 126.453 18.4867 126.208 18.38C125.888 18.2413 125.664 18.0653 125.536 17.852C125.419 17.6493 125.397 17.4307 125.472 17.196C125.568 16.8867 125.723 16.6733 125.936 16.556C126.149 16.4493 126.373 16.4387 126.608 16.524C126.779 16.5773 127.003 16.6573 127.28 16.764C127.557 16.8813 127.877 16.94 128.24 16.94C128.731 16.94 129.136 16.8707 129.456 16.732C129.787 16.604 130.032 16.38 130.192 16.06C130.363 15.7507 130.448 15.324 130.448 14.78V13.708L130.784 14.092C130.603 14.444 130.373 14.7373 130.096 14.972C129.829 15.196 129.509 15.3667 129.136 15.484C128.763 15.6013 128.336 15.66 127.856 15.66C127.291 15.66 126.795 15.532 126.368 15.276C125.952 15.0093 125.627 14.6467 125.392 14.188C125.157 13.7187 125.04 13.1853 125.04 12.588V7.916C125.04 7.63867 125.131 7.40933 125.312 7.228C125.493 7.036 125.723 6.94 126 6.94C126.277 6.94 126.507 7.036 126.688 7.228C126.869 7.40933 126.96 7.63867 126.96 7.916V12.012C126.96 12.7053 127.109 13.196 127.408 13.484C127.717 13.7613 128.144 13.9 128.688 13.9C129.061 13.9 129.376 13.8307 129.632 13.692C129.888 13.5427 130.085 13.3293 130.224 13.052C130.363 12.764 130.432 12.4173 130.432 12.012V7.916C130.432 7.63867 130.523 7.40933 130.704 7.228C130.885 7.036 131.115 6.94 131.392 6.94Z" fill="#0D1216"/>
</svg>
