<svg width="40" height="40" viewBox="0 0 40 40" fill="none" xmlns="http://www.w3.org/2000/svg">
<rect width="40" height="40" fill="#F5F5F5"/>
<g clip-path="url(#clip0_2_4)">
<rect width="1920" height="1060" transform="translate(-345 -188)" fill="#F8F8F8"/>
<rect x="-345" y="-128" width="1920" height="160" fill="white"/>
<path d="M11.749 8L6.771 -4.673H3.997L-0.981 8H1.546L2.477 5.568H8.291L9.222 8H11.749ZM7.664 3.611H3.104L5.384 -2.431L7.664 3.611ZM21.6642 8L17.7692 2.984L21.5882 -1.177H19.1182L15.0712 3.25V-1.177H13.0762V8H15.0712V5.53L16.3442 4.219L19.1562 8H21.6642ZM30.2972 10.337H32.2922V6.252H31.2852V-1.177H29.2902V6.252H25.0722V-1.177H23.0772V8H30.2972V10.337ZM34.9196 -2.298C35.6036 -2.298 36.1546 -2.849 36.1546 -3.533C36.1546 -4.217 35.6036 -4.768 34.9196 -4.768C34.2546 -4.768 33.6846 -4.217 33.6846 -3.533C33.6846 -2.849 34.2546 -2.298 34.9196 -2.298ZM35.9266 8V-1.177H33.9316V8H35.9266ZM42.6187 -3.552C42.6187 -4.16 42.1057 -4.654 41.4977 -4.654C40.8897 -4.654 40.3767 -4.16 40.3767 -3.552C40.3767 -2.925 40.8897 -2.431 41.4977 -2.431C42.1057 -2.431 42.6187 -2.925 42.6187 -3.552ZM38.6287 -3.552C38.6287 -4.16 38.1347 -4.654 37.5267 -4.654C36.8997 -4.654 36.4057 -4.16 36.4057 -3.552C36.4057 -2.925 36.8997 -2.431 37.5267 -2.431C38.1347 -2.431 38.6287 -2.925 38.6287 -3.552ZM40.5097 8V-1.177H38.5147V8H40.5097Z" fill="#535353"/>
<rect x="-30" y="20" width="351" height="42" fill="#D9D9D9"/>
<g filter="url(#filter0_b_2_4)">
<rect x="-345" y="-28" width="1920" height="900" fill="#1B1A1A" fill-opacity="0.8"/>
</g>
<rect x="-30" y="-18" width="623" height="616" rx="8" fill="white"/>
<rect width="300" height="60" transform="translate(-30 -10)" fill="white"/>
<path d="M39.0244 23.0976H38.0488V6.12195C38.0488 5.63415 37.6585 5.14634 37.0732 5.14634C36.4878 5.14634 36.0976 5.53659 36.0976 6.12195V6.60976C25.561 4.46341 14.1463 4.46341 3.60976 6.60976V6.12195C3.60976 5.63415 3.21951 5.14634 2.63415 5.14634C2.14634 5.14634 1.65854 5.53659 1.65854 6.12195V23H0.97561C0.487805 23 0 23.3902 0 23.9756V27.9756C0 28.4634 0.390244 28.9512 0.97561 28.9512H3.60976L2.82927 33.5366C2.82927 33.8293 2.82927 34.0244 3.02439 34.2195C3.12195 34.4146 3.41463 34.5122 3.60976 34.6098H3.80488C4.29268 34.6098 4.68293 34.3171 4.68293 33.8293L5.46341 28.9512H34.6341L35.4146 33.8293C35.5122 34.3171 35.9024 34.6098 36.2927 34.6098H36.4878C36.9756 34.5122 37.3659 34.0244 37.2683 33.5366L36.4878 28.9512H39.0244C39.5122 28.9512 40 28.561 40 27.9756V23.9756C40 23.4878 39.6098 23.0976 39.0244 23.0976ZM33.8537 17.8293V16.7561C33.8537 15 32.3902 13.5366 30.6341 13.5366H23.2195C21.4634 13.5366 20 15 20 16.7561V17.7317H19.9024V16.7561C19.9024 15 18.439 13.5366 16.6829 13.5366H9.36585C7.60976 13.5366 6.14634 15 6.14634 16.7561V17.8293C4.78049 18.2195 3.80488 19.4878 3.80488 20.8537V23V8.56098C14.2439 6.31707 25.8537 6.31707 36.2927 8.56098V23V20.8537C36.1951 19.3902 35.2195 18.122 33.8537 17.8293ZM8 17.6341V16.6585C8 15.9756 8.58537 15.2927 9.36585 15.2927H16.7805C17.4634 15.2927 18.1463 15.878 18.1463 16.6585V17.6341H8ZM21.9512 17.6341V16.6585C21.9512 15.9756 22.5366 15.2927 23.3171 15.2927H30.7317C31.4146 15.2927 32.0976 15.878 32.0976 16.6585V17.6341H21.9512ZM5.65854 20.8537C5.65854 20.1707 6.2439 19.4878 7.02439 19.4878H33.1707C33.8537 19.4878 34.5366 20.0732 34.5366 20.8537V23H5.65854V20.8537ZM38.1463 24.9512V27.0976H1.85366V24.9512H38.1463Z" fill="#2B2929"/>
</g>
<defs>
<filter id="filter0_b_2_4" x="-350" y="-33" width="1930" height="910" filterUnits="userSpaceOnUse" color-interpolation-filters="sRGB">
<feFlood flood-opacity="0" result="BackgroundImageFix"/>
<feGaussianBlur in="BackgroundImageFix" stdDeviation="2.5"/>
<feComposite in2="SourceAlpha" operator="in" result="effect1_backgroundBlur_2_4"/>
<feBlend mode="normal" in="SourceGraphic" in2="effect1_backgroundBlur_2_4" result="shape"/>
</filter>
<clipPath id="clip0_2_4">
<rect width="1920" height="1060" fill="white" transform="translate(-345 -188)"/>
</clipPath>
</defs>
</svg>
