<svg width="50" height="50" viewBox="0 0 50 50" fill="none" xmlns="http://www.w3.org/2000/svg">
<g id="bars" clip-path="url(#clip0_2014_10064)">
<g id="Group 5">
<path id="Vector" d="M14.2046 38.2582L37.7748 14.6879C38.6587 13.8041 38.6587 12.6256 37.7748 11.7417C36.8909 10.8578 35.7124 10.8578 34.8285 11.7417L11.2583 35.3119C10.3744 36.1958 10.3744 37.3743 11.2583 38.2582C12.1422 39.1421 13.3207 39.1421 14.2046 38.2582Z" fill="#535353"/>
<path id="Vector_2" d="M11.2583 14.688L34.8285 38.2582C35.7124 39.1421 36.8909 39.1421 37.7748 38.2582C38.6587 37.3743 38.6587 36.1958 37.7748 35.3119L14.2046 11.7417C13.3207 10.8578 12.1422 10.8578 11.2583 11.7417C10.3744 12.6256 10.3744 13.8041 11.2583 14.688Z" fill="#535353"/>
</g>
</g>
<defs>
<clipPath id="clip0_2014_10064">
<rect width="50" height="50" fill="white"/>
</clipPath>
</defs>
</svg>
