<svg xmlns="http://www.w3.org/2000/svg" aria-hidden="true" overflow="hidden" style="position:absolute;width:0;height:0">
  <defs>
    <symbol id="icon-account" viewBox="0 0 32 32">
      <path d="M16 16a7.596 7.596 0 0 1-7.619-7.619C8.381 4.214 11.774.762 16 .762c4.167 0 7.619 3.452 7.619 7.619C23.619 12.607 20.167 16 16 16zm2.976 2.857c5.714 0 10.357 4.643 10.357 10.357 0 1.131-.952 2.024-2.083 2.024H4.691a2.007 2.007 0 0 1-2.024-2.024c0-5.714 4.583-10.357 10.298-10.357h6.012z"/>
    </symbol>
    <symbol id="icon-arrow-control" viewBox="0 0 32 32">
      <path d="M22.621 32c-.621 0-1.172-.207-1.586-.621L7.794 18.138a2.125 2.125 0 0 1 0-3.103L21.035 1.794a2.125 2.125 0 0 1 3.103 0 2.125 2.125 0 0 1 0 3.103L12.483 16.552l11.655 11.724a2.125 2.125 0 0 1 0 3.103 2.14 2.14 0 0 1-1.517.621z"/>
    </symbol>
    <symbol id="icon-arrow-up" viewBox="0 0 32 32">
      <path d="M28.25 16.01a2.088 2.088 0 0 1-1.481.606c-.606 0-1.144-.202-1.548-.606l-7.067-7.067v20.596c0 1.212-1.01 2.154-2.154 2.154-1.077 0-2.154-.942-2.154-2.154V8.943L6.711 16.01a2.076 2.076 0 0 1-3.029 0 2.076 2.076 0 0 1 0-3.029L14.451 2.212a2.076 2.076 0 0 1 3.029 0l10.769 10.769a2.076 2.076 0 0 1 0 3.029z"/>
    </symbol>
    <symbol id="icon-bag" viewBox="0 0 32 32">
      <path d="M9 7c0-3.813 3.125-7 7-7 3.813 0 7 3.188 7 7v3h4c1.625 0 3 1.375 3 3v13a6 6 0 0 1-6 6H8c-3.375 0-6-2.687-6-6V13c0-1.625 1.313-3 3-3h4V7zm3 3h8V7c0-2.188-1.813-4-4-4-2.25 0-4 1.813-4 4v3zm-1.5 6c.813 0 1.5-.625 1.5-1.5 0-.813-.688-1.5-1.5-1.5-.875 0-1.5.687-1.5 1.5 0 .875.625 1.5 1.5 1.5zm11-3c-.875 0-1.5.687-1.5 1.5 0 .875.625 1.5 1.5 1.5.813 0 1.5-.625 1.5-1.5 0-.813-.687-1.5-1.5-1.5z"/>
    </symbol>
    <symbol id="icon-facebook" viewBox="0 0 32 32">
      <path d="M23.083 17.905h-4.464v13.333h-5.952V17.905H7.786v-5.476h4.881V8.203c0-4.762 2.857-7.44 7.202-7.44 2.083 0 4.286.417 4.286.417v4.702h-2.441c-2.381 0-3.095 1.429-3.095 2.976v3.571h5.298l-.833 5.476z"/>
    </symbol>
    <symbol id="icon-favourite" viewBox="0 0 32 32">
      <path d="m15.286 5.762.655.714.714-.655c1.964-1.964 4.762-2.857 7.44-2.381 4.107.655 7.143 4.226 7.143 8.393v.298c0 2.5-1.071 4.881-2.857 6.548l-10.774 10.06c-.417.417-1.012.595-1.607.595-.655 0-1.25-.179-1.667-.595L3.559 18.679C1.773 17.012.761 14.631.761 12.131v-.298c0-4.167 2.976-7.738 7.083-8.393 2.679-.476 5.476.417 7.44 2.321 0 .06-.059 0 0 0zm.654 4.762-2.679-2.738c-1.31-1.25-3.155-1.845-4.94-1.548a5.633 5.633 0 0 0-4.702 5.595v.298c0 1.726.655 3.333 1.905 4.464L16 26.357l10.417-9.762a5.989 5.989 0 0 0 1.964-4.464v-.298c0-2.798-2.024-5.119-4.762-5.595-1.786-.298-3.631.298-4.941 1.548l-2.738 2.738z"/>
    </symbol>
    <symbol id="icon-filter" viewBox="0 0 32 32">
      <path d="M2.164 5.508A2.249 2.249 0 0 1 4.187 4.25h23.625c.82 0 1.586.492 1.969 1.258.328.766.219 1.695-.328 2.352L19.5 20.055V27c0 .711-.383 1.312-.984 1.586s-1.313.219-1.859-.164l-3.5-2.625c-.437-.328-.656-.82-.656-1.422v-4.32L2.493 7.86c-.547-.656-.656-1.586-.328-2.352z"/>
    </symbol>
    <symbol id="icon-icon" viewBox="0 0 32 32">
      <path d="M26.15 10.8v.7c0 6.95-5.25 14.9-14.9 14.9-3 0-5.75-.85-8.05-2.35.4.05.8.1 1.25.1 2.45 0 4.7-.85 6.5-2.25-2.3-.05-4.25-1.55-4.9-3.65.35.05.65.1 1 .1.45 0 .95-.1 1.35-.2-2.4-.5-4.2-2.6-4.2-5.15v-.05c.7.4 1.55.6 2.4.65a5.166 5.166 0 0 1-2.35-4.35c0-1 .25-1.9.7-2.65 2.6 3.15 6.5 5.25 10.85 5.5-.1-.4-.15-.8-.15-1.2 0-2.9 2.35-5.25 5.25-5.25 1.5 0 2.85.6 3.85 1.65 1.15-.25 2.3-.7 3.3-1.3a5.13 5.13 0 0 1-2.3 2.9c1.05-.1 2.1-.4 3-.8-.7 1.05-1.6 1.95-2.6 2.7z"/>
    </symbol>
    <symbol id="icon-instagram" viewBox="0 0 32 32">
      <path d="M16 8.434c4.145 0 7.566 3.421 7.566 7.566 0 4.211-3.421 7.566-7.566 7.566A7.525 7.525 0 0 1 8.434 16c0-4.145 3.355-7.566 7.566-7.566zm0 12.5c2.697 0 4.868-2.171 4.868-4.934A4.857 4.857 0 0 0 16 11.132c-2.763 0-4.934 2.171-4.934 4.868A4.928 4.928 0 0 0 16 20.934zm9.605-12.763c0-.987-.789-1.776-1.776-1.776s-1.776.789-1.776 1.776.789 1.776 1.776 1.776 1.776-.789 1.776-1.776zm5 1.776c.132 2.434.132 9.737 0 12.171-.132 2.369-.658 4.408-2.369 6.184-1.71 1.71-3.816 2.237-6.184 2.368-2.434.132-9.737.132-12.171 0-2.368-.132-4.408-.658-6.184-2.368-1.711-1.776-2.237-3.816-2.368-6.184-.132-2.434-.132-9.737 0-12.171.132-2.368.658-4.474 2.368-6.184 1.776-1.711 3.816-2.237 6.184-2.368 2.434-.132 9.737-.132 12.171 0 2.368.132 4.474.658 6.184 2.368s2.237 3.816 2.369 6.184zm-3.158 14.737c.789-1.908.592-6.513.592-8.684 0-2.105.197-6.711-.592-8.684-.526-1.25-1.513-2.303-2.763-2.763-1.974-.789-6.579-.592-8.684-.592-2.171 0-6.776-.197-8.684.592a5.072 5.072 0 0 0-2.829 2.763C3.698 9.29 3.895 13.895 3.895 16c0 2.171-.197 6.776.592 8.684a4.985 4.985 0 0 0 2.829 2.829c1.908.79 6.513.592 8.684.592 2.105 0 6.711.197 8.684-.592 1.25-.526 2.303-1.513 2.763-2.829z"/>
    </symbol>
    <symbol id="icon-linkedin" viewBox="0 0 32 32">
      <path d="M7.842 31.158H1.724V11.487h6.118v19.671zM4.75 8.855c-1.908 0-3.487-1.645-3.487-3.618 0-2.697 2.895-4.408 5.263-3.026 1.118.592 1.776 1.776 1.776 3.026 0 1.974-1.579 3.618-3.553 3.618zm25.921 22.303h-6.053v-9.54c0-2.302-.066-5.197-3.224-5.197s-3.618 2.434-3.618 5v9.737h-6.118V11.487h5.855v2.697h.066c.855-1.513 2.829-3.158 5.789-3.158 6.184 0 7.368 4.079 7.368 9.342v10.789h-.066z"/>
    </symbol>
    <symbol id="icon-search" viewBox="0 0 32 32">
      <path d="M30.591 27.409a2.372 2.372 0 0 1 0 3.239 2.372 2.372 0 0 1-3.239 0l-6.761-6.818c-2.329 1.534-5.17 2.33-8.239 1.932-5.227-.739-9.432-5-10.114-10.17C1.272 7.865 7.806 1.331 15.533 2.296c5.17.682 9.432 4.886 10.17 10.114a11.798 11.798 0 0 1-1.932 8.182l6.818 6.818zM6.67 14a7.251 7.251 0 0 0 7.273 7.273c3.977 0 7.273-3.239 7.273-7.273 0-3.977-3.295-7.273-7.273-7.273-4.034 0-7.273 3.295-7.273 7.273z"/>
      <path d="m30.591 27.409.531-.497-.008-.009-.008-.008-.514.514zm0 3.239.497.531.017-.016.016-.017-.531-.497zm-3.239 0-.516.512.009.009.01.009.497-.531zm-6.761-6.818.517-.512-.419-.423-.497.327.4.607zm-8.239 1.931-.102.72.008.001.094-.721zM2.239 15.591l-.722.09.001.005.721-.095zM15.534 2.295l.095-.721-.005-.001-.09.722zm10.171 10.114.721-.094-.001-.008-.72.102zm-1.932 8.182-.603-.407-.336.497.424.424.514-.514zm6.287 7.315c.59.629.59 1.615 0 2.244l1.061.995a3.096 3.096 0 0 0 0-4.233l-1.061.995zm.034 2.211c-.629.59-1.615.59-2.244 0l-.995 1.061a3.099 3.099 0 0 0 4.233 0l-.995-1.061zm-2.225.019-6.761-6.818-1.033 1.024 6.761 6.818 1.033-1.024zm-7.678-6.914c-2.197 1.447-4.865 2.191-7.745 1.818l-.187 1.442c3.256.422 6.27-.424 8.732-2.046l-.8-1.215zm-7.737 1.819c-4.905-.693-8.855-4.7-9.494-9.545l-1.442.19c.725 5.495 5.183 10.011 10.733 10.796l.204-1.44zm-9.494-9.54C2.053 8.244 8.187 2.11 15.444 3.017l.18-1.443C7.426.549.492 7.483 1.517 15.681L2.96 15.5zM15.439 3.016c4.846.639 8.852 4.59 9.545 9.494l1.44-.204c-.784-5.55-5.3-10.008-10.796-10.733l-.19 1.442zm9.544 9.487a11.066 11.066 0 0 1-1.813 7.681l1.206.814a12.525 12.525 0 0 0 2.05-8.682l-1.442.187zm-1.725 8.602 6.818 6.818 1.029-1.029-6.818-6.818-1.029 1.029zM5.943 14c0 4.436 3.564 8 8 8v-1.455A6.523 6.523 0 0 1 7.398 14H5.943zm8 8c4.375 0 8-3.561 8-8h-1.455c0 3.629-2.966 6.545-6.545 6.545V22zm8-8c0-4.379-3.621-8-8-8v1.455c3.576 0 6.545 2.97 6.545 6.545h1.455zm-8-8c-4.439 0-8 3.625-8 8h1.455c0-3.579 2.917-6.545 6.545-6.545V6z"/>
    </symbol>
    <symbol id="icon-submit" viewBox="0 0 32 32">
      <path d="M29.611 2.944c.444.278.667.778.5 1.278l-3.556 24c-.056.389-.278.778-.667.944-.167.111-.389.222-.611.222s-.389-.055-.556-.111l-5.444-2.334-6.167 4c-.222.111-.5.167-.722.167-.167 0-.389-.055-.611-.111a1.395 1.395 0 0 1-.667-1.222v-6.278l-8.556-3.556c-.444-.222-.778-.667-.778-1.167-.056-.5.222-1 .667-1.222L28.221 2.887a1.26 1.26 0 0 1 1.389.056zm-7.333 6.389L6.111 18.5l5.778 2.444L22.278 9.333zm-8.556 18 2.556-1.611-2.556-1.111v2.722zm10.5-1.222 2.667-17.944L14.445 22l9.778 4.111z"/>
    </symbol>
    <symbol id="icon-twitter" viewBox="0 0 32 32">
      <path d="M28.083 9.81v.833c0 8.274-6.25 17.738-17.738 17.738-3.571 0-6.845-1.012-9.583-2.798.476.059.952.119 1.488.119 2.917 0 5.595-1.012 7.738-2.679-2.738-.06-5.06-1.845-5.833-4.345.417.06.774.119 1.19.119.536 0 1.131-.119 1.607-.238-2.857-.595-5-3.095-5-6.131v-.06c.833.476 1.845.714 2.857.774a6.15 6.15 0 0 1-2.798-5.179c0-1.19.298-2.262.833-3.155a18.135 18.135 0 0 0 12.917 6.548 5.87 5.87 0 0 1-.179-1.429 6.25 6.25 0 0 1 6.25-6.25c1.786 0 3.393.714 4.583 1.964a13.2 13.2 0 0 0 3.929-1.548 6.104 6.104 0 0 1-2.738 3.452c1.25-.119 2.5-.476 3.571-.952-.833 1.25-1.905 2.321-3.095 3.214z"/>
    </symbol>
  </defs>
</svg>
