<svg width="8" height="12" viewBox="0 0 8 12" fill="none" xmlns="http://www.w3.org/2000/svg">
<path d="M6.83043 5.29539L2.59043 1.05539C2.49747 0.96166 2.38687 0.887266 2.26501 0.836497C2.14315 0.785728 2.01244 0.75959 1.88043 0.75959C1.74842 0.75959 1.61771 0.785728 1.49585 0.836497C1.374 0.887266 1.26339 0.96166 1.17043 1.05539C0.98418 1.24275 0.879639 1.4962 0.879639 1.76039C0.879639 2.02457 0.98418 2.27803 1.17043 2.46539L4.71043 6.00539L1.17043 9.54539C0.98418 9.73275 0.879639 9.9862 0.879639 10.2504C0.879639 10.5146 0.98418 10.768 1.17043 10.9554C1.26387 11.0481 1.37469 11.1214 1.49652 11.1712C1.61836 11.2209 1.74882 11.2461 1.88043 11.2454C2.01204 11.2461 2.1425 11.2209 2.26434 11.1712C2.38618 11.1214 2.49699 11.0481 2.59043 10.9554L6.83043 6.71539C6.92416 6.62243 6.99855 6.51182 7.04932 6.38997C7.10009 6.26811 7.12623 6.1374 7.12623 6.00539C7.12623 5.87338 7.10009 5.74267 7.04932 5.62081C6.99855 5.49895 6.92416 5.38835 6.83043 5.29539Z" fill="#535353"/>
</svg>
